<svg width="33" height="18" viewBox="0 0 33 18" fill="none" xmlns="http://www.w3.org/2000/svg">
<path d="M24.0062 18C22.3185 18 20.6694 17.5252 19.2409 16.6252C17.7518 15.6865 15.7498 15.6865 14.2551 16.6252C12.8267 17.5252 11.1776 18 9.48992 18C4.53167 18 0.5 13.9638 0.5 9C0.5 4.0362 4.53167 0 9.48992 0C11.1776 0 12.8267 0.474848 14.2606 1.37485C15.7498 2.3135 17.7518 2.3135 19.2409 1.37485C20.6694 0.474848 22.3185 0 24.0062 0C28.9644 0 32.9961 4.0362 32.9961 9C33.0016 13.9638 28.9644 18 24.0062 18ZM30.2605 9C30.2605 5.54908 27.4587 2.73865 24.0117 2.73865C22.8369 2.73865 21.6952 3.06994 20.7025 3.68835C19.5167 4.43374 18.1489 4.83129 16.748 4.83129C15.3472 4.83129 13.9849 4.43374 12.7991 3.68835C11.8063 3.06442 10.6647 2.73313 9.48992 2.73313C6.04286 2.73313 3.2411 5.54356 3.2411 8.99448C3.2411 12.4454 6.04286 15.2558 9.48992 15.2558C10.6647 15.2558 11.8063 14.9245 12.7991 14.3061C15.1596 12.8153 18.3364 12.8153 20.697 14.3061C21.6897 14.9301 22.8314 15.2613 24.0062 15.2613C27.4532 15.2613 30.2605 12.4509 30.2605 9Z" fill="#EA515A"/>
</svg>
