<svg width="129" height="29" viewBox="0 0 129 29" fill="none" xmlns="http://www.w3.org/2000/svg">
<path d="M59.7072 15.0875C59.7072 17.2817 61.2919 19.1573 63.9919 19.1573C65.8936 19.1573 67.1979 18.2195 67.6733 16.9631L70.3429 18.2135C69.0751 20.4077 66.8505 21.9706 63.8335 21.9706C59.8657 21.9706 56.5317 18.8387 56.5317 14.3C56.5317 9.76136 59.7072 6.62939 63.8335 6.62939C67.6428 6.62939 70.8183 9.60507 70.8183 14.1437V15.0815H59.7072V15.0875ZM59.8657 12.3283H67.4844C67.3259 10.6991 65.7412 9.44877 63.8335 9.44877C61.6149 9.44877 60.3411 10.7052 59.8657 12.3283Z" fill="#EA515A"/>
<path d="M87.408 21.6649H84.5495L84.2326 20.4145L84.1594 20.174L83.9156 20.4145C82.9648 21.3523 81.374 21.9775 79.7893 21.9775C75.6631 21.9775 72.1707 18.8455 72.1707 14.3068C72.1707 9.7682 75.6631 6.63623 79.7893 6.63623C81.374 6.63623 82.9648 7.26142 83.9156 8.19921L84.1594 8.43967L84.2326 8.19921L84.5495 6.94883H87.408V21.6649ZM79.9478 9.44959C76.9308 9.44959 75.3096 11.6438 75.3096 14.3008C75.3096 16.9579 76.9308 19.1521 79.9478 19.1521C82.6479 19.1521 84.5495 16.9579 84.5495 14.3008C84.5495 11.6438 82.6479 9.44959 79.9478 9.44959Z" fill="#EA515A"/>
<path d="M89.48 6.94883H92.3385L92.6554 8.19921L92.7286 8.52984L92.9724 8.19921C93.6063 7.26142 95.197 6.63623 96.4648 6.63623C100.274 6.63623 102.499 9.14301 102.499 12.5876V21.6709H99.3233V12.5816C99.2258 10.5797 98.2445 9.44959 96.1479 9.44959C94.2767 9.44959 92.7164 10.9525 92.6554 12.7679V21.6589H89.48V6.94883Z" fill="#EA515A"/>
<path d="M117.591 21.6645H114.732L114.415 20.4141L114.342 20.0414L114.098 20.4141C113.465 21.3519 111.874 21.9771 110.606 21.9771C106.797 21.9771 104.572 19.4703 104.572 16.0258V6.94849H107.747V16.0318C107.808 18.0336 108.796 19.1638 110.923 19.1638C112.764 19.1638 114.318 17.691 114.415 15.8755V6.94849H117.591V21.6645Z" fill="#EA515A"/>
<path d="M119.157 6.94875H122.046V3.81678L124.557 0.684814H125.161V6.94875H128.367V9.76812H125.161V17.2824C125.161 18.0339 125.587 18.5869 126.246 18.7733C126.502 18.8454 126.77 18.8454 127.026 18.8033L128.684 18.5328V21.3522L127.708 21.5265C126.892 21.6708 126.057 21.6768 125.252 21.4905C123.161 21.0095 122.046 19.5548 122.046 17.2824V9.76812H119.157V6.94875Z" fill="#EA515A"/>
<path d="M40.1355 6.96665H42.9879L43.2744 8.21703L43.4633 8.37333L43.6218 8.21703C44.5726 7.27924 46.1573 6.65405 47.742 6.65405C51.8622 6.65405 55.3546 9.78001 55.3546 14.3187C55.3546 18.8573 51.8683 21.9833 47.742 21.9833C46.1878 21.9833 44.5726 21.3581 43.6218 20.4203L43.4633 20.264L43.2744 20.4203V28.3013H40.1355V6.96665ZM47.5896 19.1639C50.6005 19.1639 52.1852 16.9757 52.1852 14.3187C52.1852 11.6616 50.6005 9.47342 47.5896 9.47342C44.8957 9.47342 42.994 11.6616 42.994 14.3187C42.994 16.9697 44.8957 19.1639 47.5896 19.1639Z" fill="#EA515A"/>
<path d="M25.9767 5C24.1116 5 22.2892 5.51698 20.7106 6.49685C19.065 7.5188 16.8525 7.5188 15.2008 6.49685C13.6222 5.51698 11.7998 5 9.93476 5C4.45541 5 0 9.39437 0 14.7987C0 20.203 4.45541 24.5973 9.93476 24.5973C11.7998 24.5973 13.6222 24.0804 15.2069 23.1005C16.8525 22.0785 19.065 22.0785 20.7106 23.1005C22.2892 24.0804 24.1116 24.5973 25.9767 24.5973C31.456 24.5973 35.9114 20.203 35.9114 14.7987C35.9114 9.39437 31.456 5 25.9767 5ZM32.8822 14.7987C32.8822 18.5558 29.786 21.6157 25.9767 21.6157C24.6784 21.6157 23.4168 21.255 22.3197 20.5817C21.0093 19.7701 19.4977 19.3373 17.9496 19.3373C16.4015 19.3373 14.8961 19.7701 13.5856 20.5817C12.4885 21.261 11.2269 21.6217 9.92867 21.6217C6.11933 21.6217 3.02309 18.5618 3.02309 14.8047C3.02309 11.0475 6.11933 7.98769 9.92867 7.98769C11.2269 7.98769 12.4885 8.34838 13.5856 9.02166C16.1943 10.6448 19.705 10.6448 22.3136 9.02166C23.4107 8.34237 24.6723 7.98168 25.9706 7.98168C29.786 7.98769 32.8822 11.0415 32.8822 14.7987Z" fill="#EA515A"/>
<path d="M59.7072 15.0875C59.7072 17.2817 61.2919 19.1573 63.9919 19.1573C65.8936 19.1573 67.1979 18.2195 67.6733 16.9631L70.3429 18.2135C69.0751 20.4077 66.8505 21.9706 63.8335 21.9706C59.8657 21.9706 56.5317 18.8387 56.5317 14.3C56.5317 9.76136 59.7072 6.62939 63.8335 6.62939C67.6428 6.62939 70.8183 9.60507 70.8183 14.1437V15.0815H59.7072V15.0875ZM59.8657 12.3283H67.4844C67.3259 10.6991 65.7412 9.44877 63.8335 9.44877C61.6149 9.44877 60.3411 10.7052 59.8657 12.3283Z" fill="#EA515A"/>
<path d="M87.408 21.664H84.5495L84.1594 20.1672L83.9156 20.4077C82.9648 21.3454 81.374 21.9706 79.7893 21.9706C75.6631 21.9706 72.1707 18.8387 72.1707 14.3C72.1707 9.76136 75.6631 6.62939 79.7893 6.62939C81.374 6.62939 82.9648 7.25459 83.9156 8.19237L84.1594 8.43283L84.5495 6.93598H87.408V21.664ZM79.9478 9.44877C76.9308 9.44877 75.3096 11.6429 75.3096 14.3C75.3096 16.9571 76.9308 19.1513 79.9478 19.1513C82.6479 19.1513 84.5495 16.9571 84.5495 14.3C84.5495 11.6429 82.6479 9.44877 79.9478 9.44877Z" fill="#EA515A"/>
<path d="M89.48 6.94883H92.3385L92.7286 8.52984L92.9724 8.19921C93.6063 7.26142 95.197 6.63623 96.4648 6.63623C100.274 6.63623 102.499 9.14301 102.499 12.5876V21.6709H99.3233V12.5816C99.2258 10.5797 98.2445 9.44959 96.1479 9.44959C94.2767 9.44959 92.7164 10.9525 92.6554 12.7679V21.6589H89.48V6.94883Z" fill="#EA515A"/>
<path d="M117.591 21.6645H114.732L114.342 20.0414L114.098 20.4141C113.465 21.3519 111.874 21.9771 110.606 21.9771C106.797 21.9771 104.572 19.4703 104.572 16.0258V6.94849H107.747V16.0318C107.808 18.0336 108.796 19.1638 110.923 19.1638C112.764 19.1638 114.318 17.691 114.415 15.8755V6.94849H117.591V21.6645Z" fill="#EA515A"/>
<path d="M119.157 6.94875H122.046V3.81678L124.557 0.684814H125.161V6.94875H128.367V9.76812H125.161V17.2824C125.161 18.0339 125.587 18.5869 126.246 18.7733C126.502 18.8454 126.77 18.8454 127.026 18.8033L128.684 18.5328V21.3522L127.708 21.5265C126.892 21.6708 126.057 21.6768 125.252 21.4905C123.161 21.0095 122.046 19.5548 122.046 17.2824V9.76812H119.157V6.94875Z" fill="#EA515A"/>
<path d="M40.1355 6.96665H42.9879L43.3475 8.52963L43.6218 8.21703C44.5726 7.27924 46.1573 6.65405 47.742 6.65405C51.8622 6.65405 55.3546 9.78001 55.3546 14.3187C55.3546 18.8573 51.8683 21.9833 47.742 21.9833C46.1878 21.9833 44.5726 21.3581 43.6218 20.4203L43.2683 20.0776L43.2744 28.3013H40.1355V6.96665ZM47.5896 19.1639C50.6005 19.1639 52.1852 16.9757 52.1852 14.3187C52.1852 11.6616 50.6005 9.47342 47.5896 9.47342C44.8957 9.47342 42.994 11.6616 42.994 14.3187C42.994 16.9697 44.8957 19.1639 47.5896 19.1639Z" fill="#EA515A"/>
</svg>
