<!-- <?xml version="1.0" encoding="UTF-8"?> -->
<svg width="29px" height="36px" viewBox="0 0 29 36" version="1.1" xmlns="http://www.w3.org/2000/svg" xmlns:xlink="http://www.w3.org/1999/xlink">
    <!-- Generator: Sketch 47.1 (45422) - http://www.bohemiancoding.com/sketch -->
    <title>Apple icon</title>
    <g id="Page-1">
        <g id="homepage_dektop_1440" transform="translate(-157.000000, -575.000000)">
            <g id="hero">
                <g id="app_download_apple" transform="translate(83.000000, 566.000000)">
                    <g id="apple" transform="translate(74.000000, 9.000000)">
                        <path d="M23.6075644,18.9956288 C23.5664599,14.5846555 27.1836573,12.4358167 27.3480754,12.3376272 C25.3003231,9.32018915 22.1278018,8.90854866 21.0142431,8.87456 C18.3499231,8.59132113 15.7640754,10.4871333 14.4076263,10.4871333 C13.0212831,10.4871333 10.9324263,8.90477215 8.67915148,8.95009036 C5.78315148,8.99540858 3.07025342,10.6910653 1.57928052,13.327075 C-1.4886111,18.6972839 0.802031484,26.590207 3.74287277,30.9294264 C5.21142503,33.0556062 6.93034116,35.4310361 9.17987923,35.3479527 C11.3808392,35.2535398 12.2029295,33.9279819 14.8635128,33.9279819 C17.4942018,33.9279819 18.2639773,35.3479527 20.5620934,35.2913049 C22.9237347,35.2535398 24.4109708,33.1575721 25.830945,31.0125098 C27.5311773,28.572879 28.215007,26.17479 28.2411644,26.0501649 C28.1851128,26.0312823 23.6524057,24.2865309 23.6075644,18.9956288" fill="currentColor"></path>
                        <path d="M19.2725326,6.02026753 C20.4570901,4.52476632 21.2679701,2.489223 21.0400268,0.419691012 C19.3285843,0.498997895 17.1836759,1.62062381 15.9505404,3.08213636 C14.8594023,4.37370559 13.8841043,6.48855579 14.1344681,8.47500437 C16.0589068,8.61851206 18.0356604,7.49310964 19.2725326,6.02026753" fill="currentColor"></path>
                    </g>
                </g>
            </g>
        </g>
    </g>
</svg>
