<svg width="23" height="22" viewBox="0 0 23 22" fill="none" xmlns="http://www.w3.org/2000/svg">
<path fill-rule="evenodd" clip-rule="evenodd" d="M21.5319 0H1.96029C1.28955 0 0.746094 0.54354 0.746094 1.21427V20.7857C0.746094 21.4563 1.28955 22 1.96029 22H12.497V13.4804H9.62999V10.1602H12.497V7.7116C12.497 4.8701 14.2325 3.32281 16.7674 3.32281C17.9816 3.32281 19.0252 3.41315 19.3294 3.45363V6.42315L17.5712 6.42397C16.1927 6.42397 15.9257 7.07904 15.9257 8.04041V10.1602H19.2136L18.7854 13.4804H15.9257V22H21.5319C22.2024 22 22.7461 21.4563 22.7461 20.7857V1.21427C22.7461 0.54354 22.2024 0 21.5319 0" fill="white"/>
</svg>
