<svg width="22" height="22" viewBox="0 0 22 22" fill="none" xmlns="http://www.w3.org/2000/svg">
<path fill-rule="evenodd" clip-rule="evenodd" d="M10.8727 0C7.91984 0 7.54958 0.0124184 6.38993 0.0649181C5.23262 0.117289 4.44229 0.299668 3.75066 0.566321C3.03569 0.842009 2.42934 1.21088 1.8249 1.8106C1.22046 2.41036 0.848682 3.01197 0.570823 3.72136C0.302028 4.40754 0.118256 5.19174 0.0654293 6.33997C0.0125162 7.49059 0 7.85796 0 10.7878C0 13.7175 0.0125162 14.0849 0.0654293 15.2355C0.118256 16.3837 0.302028 17.1679 0.570823 17.8541C0.848682 18.5635 1.22046 19.1651 1.8249 19.7649C2.42934 20.3646 3.03569 20.7335 3.75066 21.0092C4.44229 21.2758 5.23262 21.4582 6.38993 21.5106C7.54958 21.5631 7.91984 21.5755 10.8727 21.5755C13.8256 21.5755 14.1958 21.5631 15.3555 21.5106C16.5128 21.4582 17.3031 21.2758 17.9947 21.0092C18.7097 20.7335 19.3161 20.3646 19.9205 19.7649C20.525 19.1651 20.8967 18.5635 21.1746 17.8541C21.4434 17.1679 21.6271 16.3837 21.68 15.2355C21.7329 14.0849 21.7454 13.7175 21.7454 10.7878C21.7454 7.85796 21.7329 7.49059 21.68 6.33997C21.6271 5.19174 21.4434 4.40754 21.1746 3.72136C20.8967 3.01197 20.525 2.41036 19.9205 1.8106C19.3161 1.21088 18.7097 0.842009 17.9947 0.566321C17.3031 0.299668 16.5128 0.117289 15.3555 0.0649181C14.1958 0.0124184 13.8256 0 10.8727 0ZM10.874 1.94357C13.7771 1.94357 14.121 1.95458 15.2675 2.00648C16.3275 2.05444 16.9032 2.23018 17.2864 2.37791C17.7939 2.57361 18.1561 2.80738 18.5366 3.18489C18.917 3.56237 19.1527 3.92173 19.3499 4.42528C19.4987 4.80541 19.6759 5.37661 19.7243 6.4284C19.7766 7.56593 19.7876 7.90713 19.7876 10.7876C19.7876 13.668 19.7766 14.0092 19.7243 15.1467C19.6759 16.1985 19.4987 16.7697 19.3499 17.1499C19.1527 17.6534 18.917 18.0128 18.5366 18.3903C18.1561 18.7678 17.7939 19.0015 17.2864 19.1972C16.9032 19.345 16.3275 19.5207 15.2675 19.5687C14.1212 19.6206 13.7773 19.6316 10.874 19.6316C7.97068 19.6316 7.62683 19.6206 6.48052 19.5687C5.42044 19.5207 4.8447 19.345 4.46158 19.1972C3.95411 19.0015 3.59187 18.7678 3.21143 18.3903C2.83098 18.0128 2.59533 17.6534 2.39809 17.1499C2.24924 16.7697 2.07211 16.1985 2.02373 15.1467C1.97142 14.0092 1.96037 13.668 1.96037 10.7876C1.96037 7.90713 1.97142 7.56593 2.02373 6.4284C2.07211 5.37661 2.24924 4.80541 2.39809 4.42528C2.59533 3.92173 2.83098 3.56237 3.21143 3.18489C3.59187 2.80738 3.95411 2.57361 4.46158 2.37791C4.8447 2.23018 5.42044 2.05444 6.48048 2.00648C7.627 1.95458 7.97085 1.94357 10.874 1.94357Z" fill="white"/>
<path fill-rule="evenodd" clip-rule="evenodd" d="M10.8756 14.3837C8.87404 14.3837 7.25139 12.7737 7.25139 10.7878C7.25139 8.80177 8.87404 7.19183 10.8756 7.19183C12.8772 7.19183 14.4998 8.80177 14.4998 10.7878C14.4998 12.7737 12.8772 14.3837 10.8756 14.3837ZM10.8743 5.24805C7.79075 5.24805 5.29102 7.72821 5.29102 10.7877C5.29102 13.8472 7.79075 16.3273 10.8743 16.3273C13.9579 16.3273 16.4576 13.8472 16.4576 10.7877C16.4576 7.72821 13.9579 5.24805 10.8743 5.24805Z" fill="white"/>
<path fill-rule="evenodd" clip-rule="evenodd" d="M17.9825 5.02937C17.9825 5.74433 17.3983 6.32388 16.6778 6.32388C15.9572 6.32388 15.373 5.74433 15.373 5.02937C15.373 4.31442 15.9572 3.73486 16.6778 3.73486C17.3983 3.73486 17.9825 4.31442 17.9825 5.02937" fill="white"/>
</svg>
