<svg width="48" height="30" viewBox="0 0 48 30" fill="none" xmlns="http://www.w3.org/2000/svg">
<g filter="url(#filter0_d_1058_88775)">
<path d="M32.7297 0C30.667 0 28.6515 0.580368 26.9056 1.68037C25.0856 2.82761 22.6386 2.82761 20.8118 1.68037C19.0659 0.580368 17.0504 0 14.9877 0C8.9276 0 4 4.93313 4 11C4 17.0669 8.9276 22 14.9877 22C17.0504 22 19.0659 21.4196 20.8186 20.3196C22.6386 19.1724 25.0856 19.1724 26.9056 20.3196C28.6515 21.4196 30.667 22 32.7297 22C38.7898 22 43.7174 17.0669 43.7174 11C43.7242 4.93313 38.7898 0 32.7297 0ZM40.3739 11C40.3739 15.2178 36.9495 18.6528 32.7365 18.6528C31.3007 18.6528 29.9053 18.2478 28.6919 17.492C27.2426 16.581 25.5709 16.0951 23.8587 16.0951C22.1465 16.0951 20.4815 16.581 19.0322 17.492C17.8189 18.2546 16.4235 18.6595 14.9877 18.6595C10.7746 18.6595 7.35023 15.2245 7.35023 11.0067C7.35023 6.78896 10.7746 3.35399 14.9877 3.35399C16.4235 3.35399 17.8189 3.75889 19.0322 4.51472C21.9173 6.33681 25.8001 6.33681 28.6852 4.51472C29.8986 3.75215 31.2939 3.34724 32.7297 3.34724C36.9428 3.34724 40.3739 6.78221 40.3739 11Z" fill="#F6B2B6"/>
</g>
<defs>
<filter id="filter0_d_1058_88775" x="0" y="0" width="47.7168" height="30" filterUnits="userSpaceOnUse" color-interpolation-filters="sRGB">
<feFlood flood-opacity="0" result="BackgroundImageFix"/>
<feColorMatrix in="SourceAlpha" type="matrix" values="0 0 0 0 0 0 0 0 0 0 0 0 0 0 0 0 0 0 127 0" result="hardAlpha"/>
<feOffset dy="4"/>
<feGaussianBlur stdDeviation="2"/>
<feComposite in2="hardAlpha" operator="out"/>
<feColorMatrix type="matrix" values="0 0 0 0 0 0 0 0 0 0 0 0 0 0 0 0 0 0 0.25 0"/>
<feBlend mode="normal" in2="BackgroundImageFix" result="effect1_dropShadow_1058_88775"/>
<feBlend mode="normal" in="SourceGraphic" in2="effect1_dropShadow_1058_88775" result="shape"/>
</filter>
</defs>
</svg>
