<svg width="23" height="22" viewBox="0 0 23 22" fill="none" xmlns="http://www.w3.org/2000/svg">
<path fill-rule="evenodd" clip-rule="evenodd" d="M11.7465 0C5.6715 0 0.746094 4.9248 0.746094 10.9999C0.746094 15.5041 3.45467 19.3735 7.33051 21.0748C7.29956 20.3067 7.32498 19.3847 7.52199 18.549C7.7335 17.656 8.93741 12.5551 8.93741 12.5551C8.93741 12.5551 8.58598 11.8529 8.58598 10.8147C8.58598 9.18468 9.53083 7.96725 10.7075 7.96725C11.708 7.96725 12.1914 8.71876 12.1914 9.61861C12.1914 10.6244 11.5499 12.1289 11.2199 13.5223C10.9443 14.6892 11.805 15.6409 12.9561 15.6409C15.0403 15.6409 16.444 12.9641 16.444 9.79259C16.444 7.38179 14.8202 5.57729 11.8668 5.57729C8.53001 5.57729 6.45126 8.06563 6.45126 10.8451C6.45126 11.8034 6.73381 12.4793 7.17641 13.0025C7.37999 13.243 7.40821 13.3397 7.33452 13.6157C7.28176 13.818 7.16061 14.3054 7.11042 14.4984C7.03721 14.777 6.81151 14.8766 6.55966 14.7737C5.02276 14.1463 4.30691 12.4633 4.30691 10.5713C4.30691 7.44665 6.94236 3.69983 12.1688 3.69983C16.3685 3.69983 19.1326 6.73884 19.1326 10.0011C19.1326 14.3161 16.7336 17.5398 13.1973 17.5398C12.0097 17.5398 10.8926 16.8978 10.5099 16.1688C10.5099 16.1688 9.87127 18.7031 9.73601 19.1926C9.50284 20.0407 9.0463 20.8882 8.62888 21.5489C9.6183 21.841 10.6633 22 11.7465 22C17.8209 22 22.7461 17.0751 22.7461 10.9999C22.7461 4.9248 17.8209 0 11.7465 0Z" fill="white"/>
</svg>
