<?xml version="1.0" encoding="UTF-8"?>
<svg width="32px" height="37px" viewBox="0 0 32 37" version="1.1" xmlns="http://www.w3.org/2000/svg" xmlns:xlink="http://www.w3.org/1999/xlink">
    <!-- Generator: Sketch 47.1 (45422) - http://www.bohemiancoding.com/sketch -->
    <title>Android icon</title>
    <g id="Page-1" stroke="none" stroke-width="1" fill="none" fill-rule="evenodd">
        <g id="homepage_dektop_1440" transform="translate(-357.000000, -576.000000)" fill="currentColor">
            <g id="hero">
                <g id="app_download_android" transform="translate(285.000000, 566.000000)">
                    <g id="robot" transform="translate(72.000000, 10.000000)">
                        <path d="M26.4177231,12.44024 L26.4169026,12.44024 L5.5688,12.44374 L5.5688,12.48824 L5.57238974,27.19924 C5.57208205,27.59174 5.66767179,27.96184 5.83669744,28.28944 C6.24562051,29.08204 7.08705641,29.62484 8.06059487,29.62504 L9.75485128,29.62564 L9.7568,34.66354 C9.7568,34.70274 9.75782564,34.74174 9.75987692,34.78044 C9.81003077,35.74814 10.4833641,36.55794 11.3948513,36.83514 C11.3964923,36.83564 11.3980308,36.83594 11.3996718,36.83644 C11.4345436,36.84694 11.4697231,36.85684 11.5052103,36.86574 C11.6912615,36.91254 11.8862359,36.93754 12.0870564,36.93754 C12.2078769,36.93754 12.3265436,36.92854 12.4423385,36.91124 C13.5622359,36.74404 14.4195692,35.79924 14.4199795,34.66204 L14.4186462,29.62514 L17.5669538,29.62454 L17.5682872,34.66224 C17.5679795,35.91574 18.6143385,36.93714 19.8993641,36.93504 C21.1878769,36.93584 22.2323897,35.91524 22.2321846,34.66014 L22.2308513,29.62384 L23.9309538,29.62254 C24.4688,29.62274 24.9669538,29.45574 25.374441,29.17234 C26.0067487,28.73264 26.4201846,28.01224 26.4202872,27.19604 L26.4177231,12.48554 L26.4177231,12.44024 Z" id="Fill-7"></path>
                        <path d="M11.2081333,6.22476 C11.6951077,6.22436 12.089159,6.61256 12.0897744,7.08416 C12.0899795,7.55746 11.6951077,7.94216 11.2073128,7.94246 C10.7236205,7.94146 10.3295692,7.55796 10.3294667,7.08436 C10.3296718,6.61256 10.7228,6.22476 11.2081333,6.22476 M20.7725436,6.22186 C21.2555179,6.22316 21.6518256,6.61136 21.6514154,7.08276 C21.652441,7.55686 21.2576718,7.94086 20.7721333,7.94076 C20.2865949,7.94126 19.8913128,7.55736 19.8914154,7.08226 C19.8929538,6.61186 20.2859795,6.22346 20.7725436,6.22186 M21.1373641,3.46426 L22.7649538,0.56616 C22.7758256,0.54726 22.784441,0.52766 22.7909026,0.50766 C22.8346974,0.37226 22.7778769,0.22116 22.6485436,0.14396 C22.6446462,0.14156 22.6414667,0.13856 22.6373641,0.13636 C22.6245436,0.12966 22.6111077,0.12536 22.5977744,0.12056 C22.4766462,0.07626 22.3430051,0.10516 22.2548,0.19116 C22.2333641,0.21206 22.2136718,0.23516 22.1985949,0.26256 L20.5545949,3.19086 C20.0792103,2.98466 19.5840308,2.81046 19.0729538,2.66946 C18.0963385,2.40016 17.0603385,2.25456 15.9850564,2.25576 C15.6192103,2.25546 15.2578769,2.27296 14.9016718,2.30556 C13.6670051,2.41866 12.4953128,2.72346 11.4261846,3.18656 L9.78054359,0.26596 C9.71110769,0.14116 9.56905641,0.08236 9.43490256,0.10846 C9.40341538,0.11466 9.37213333,0.12396 9.34259487,0.13996 C9.30597949,0.15916 9.27551795,0.18466 9.25018462,0.21366 C9.20700513,0.26326 9.18033846,0.32406 9.17438974,0.38766 C9.16874872,0.44806 9.18115897,0.51066 9.21408205,0.56736 L10.8422872,3.46306 L10.8424923,3.46326 C8.2428,4.77046 6.32844103,7.03796 5.7028,9.72886 C5.56167179,10.33586 5.48690256,10.96446 5.48382564,11.60836 C5.48382564,11.62326 5.48300513,11.63796 5.48300513,11.65286 L26.4892615,11.65076 C26.4892615,11.63546 26.488441,11.62036 26.4883385,11.60516 C26.4703897,8.10766 24.3181846,5.06996 21.1373641,3.46426" id="Fill-4"></path>
                        <path d="M31.9808205,14.28448 C31.9806154,13.06808 31.0009231,12.07488 29.7689231,12.01428 C29.7291282,12.01228 29.6891282,12.01128 29.6489231,12.01128 C28.3612308,12.01038 27.3174359,13.02988 27.3177436,14.28568 L27.3193846,23.80718 C27.3192821,25.06418 28.3626667,26.08008 29.6512821,26.08048 C30.9389744,26.08028 31.9822564,25.06418 31.9825641,23.80618 L31.9808205,14.28448 Z" id="Fill-10"></path>
                        <path d="M2.33178462,12.01441 C1.04398974,12.01381 0.000297435897,13.03341 -1.02564103e-05,14.28791 L0.00173333333,23.80931 C0.00183589744,24.55681 0.370246154,25.21861 0.939169231,25.63291 C1.32819487,25.91621 1.8109641,26.08371 2.33404103,26.08361 C3.42891282,26.08371 4.34655385,25.35001 4.59722051,24.35781 C4.61393846,24.29171 4.62809231,24.22451 4.63875897,24.15621 C4.65629744,24.04311 4.66542564,23.92731 4.66522051,23.80941 L4.66542564,14.28671 C4.66491282,13.03251 3.61978462,12.01351 2.33178462,12.01441" id="Fill-1"></path>
                    </g>
                </g>
            </g>
        </g>
    </g>
</svg>
