<svg width="19" height="22" viewBox="0 0 19 22" fill="none" xmlns="http://www.w3.org/2000/svg">
<path d="M18.7461 9.02344V5.28516C18.7059 5.28516 18.7059 5.28516 18.7059 5.28516C17.7416 5.28516 16.8175 4.98438 16.0541 4.42578C14.9291 3.65234 14.1256 2.40625 13.8845 0.988281C13.8041 0.6875 13.8041 0.386719 13.8041 0.0859375C13.8041 0.0429688 13.8041 0.0429688 13.8041 0H10.2684V15.0391C10.2684 16.8008 8.90234 18.2617 7.25502 18.2617C5.6077 18.2617 4.24163 16.8008 4.24163 15.0391C4.24163 13.2773 5.6077 11.8164 7.25502 11.8164C7.57645 11.8164 7.8577 11.8594 8.17913 11.9883V8.12109C7.8577 8.07812 7.57645 8.03516 7.25502 8.03516C3.63895 8.03516 0.746094 11.1719 0.746094 15.0391C0.746094 18.9062 3.63895 22 7.25502 22C10.8711 22 13.8041 18.9062 13.8041 15.0391V7.34766C15.1702 8.42188 16.8577 9.02344 18.7059 9.02344H18.7461Z" fill="white"/>
</svg>
