<svg width="28" height="22" viewBox="0 0 28 22" fill="none" xmlns="http://www.w3.org/2000/svg">
<path fill-rule="evenodd" clip-rule="evenodd" d="M27.7461 2.60422C26.7528 3.04602 25.685 3.34448 24.5647 3.47875C25.7081 2.79142 26.5866 1.70303 27.0002 0.406064C25.9298 1.0425 24.7444 1.50474 23.4825 1.75379C22.4722 0.674337 21.0325 0 19.4393 0C16.3802 0 13.8998 2.4866 13.8998 5.55374C13.8998 5.98904 13.9488 6.41297 14.0433 6.81944C9.43955 6.58785 5.35783 4.37669 2.62583 1.01651C2.14901 1.83676 1.87577 2.79074 1.87577 3.80861C1.87577 5.73552 2.85371 7.43544 4.34006 8.43151C3.43205 8.40254 2.57791 8.15282 1.83109 7.73674C1.83055 7.76002 1.83055 7.78316 1.83055 7.80671C1.83055 10.4976 3.73999 12.7421 6.27407 13.2526C5.80927 13.3794 5.31989 13.4473 4.81472 13.4473C4.45778 13.4473 4.1107 13.4126 3.77239 13.3477C4.47736 15.5541 6.52301 17.16 8.94707 17.2047C7.05127 18.6944 4.66285 19.5823 2.06747 19.5823C1.62035 19.5823 1.17944 19.5559 0.746094 19.5045C3.19756 21.0804 6.10924 22 9.23746 22C19.4263 22 24.9982 13.537 24.9982 6.19775C24.9982 5.95696 24.9926 5.71738 24.982 5.47916C26.0644 4.69613 27.0035 3.71806 27.7461 2.60422" fill="white"/>
</svg>
